# xmcd
#
# Track frame offsets:
#	150
#	29114
#	59749
#	92399
#	116567
#	139046
#	153189
#	183214
#	204516
#	227032
#	261488
#	272315
#
# Disc length: 3869 seconds
#
# Revision: 1
# Processed by: cddbd v1.5.2PL0 Copyright (c) Steve Scherf et al.
# Submitted via: audiograbber 1.83.01
#
DISCID=a40f1b0c
DTITLE=Joe Bonamassa - The Ballad of John Henry
DYEAR=2009
DGENRE=Country
TTITLE0=The Ballad of John Henry
TTITLE1=Stop
TTITLE2=Last Kiss
TTITLE3=Jockey full of Bourbon
TTITLE4=Story of a Quarryman
TTITLE5=Lovesome Road Blues
TTITLE6=Happier Times
TTITLE7=Feelin´Good
TTITLE8=Funkier Than A Mosquuito´s Tweeter
TTITLE9=The Gread Flood
TTITLE10=From The Valley
TTITLE11=As The Crow Flies
EXTD=
EXTT0=
EXTT1=
EXTT2=
EXTT3=
EXTT4=
EXTT5=
EXTT6=
EXTT7=
EXTT8=
EXTT9=
EXTT10=
EXTT11=
PLAYORDER=
